<svg id="Layer_1" data-name="Layer 1" xmlns="http://www.w3.org/2000/svg" viewBox="0 0 739 484"><defs><style>.cls-1,.cls-11{fill:#006837;}.cls-11,.cls-2{font-size:48px;}.cls-11,.cls-13,.cls-2,.cls-4,.cls-6,.cls-9{font-family:BellMT, Bell MT;}.cls-3,.cls-6,.cls-9{fill:#c1272d;}.cls-13,.cls-4,.cls-6{font-size:21px;}.cls-13,.cls-5{fill:blue;}.cls-7{letter-spacing:0.03em;}.cls-8{letter-spacing:0.04em;}.cls-9{font-size:18px;}.cls-10{letter-spacing:0.01em;}.cls-12{letter-spacing:-0.02em;}</style></defs><title>overlapping_dis</title><path class="cls-1" d="M563,223a238.24,238.24,0,1,1-93,18.78A237.51,237.51,0,0,1,563,223m0-3c-133.65,0-242,108.35-242,242S429.35,704,563,704,805,595.65,805,462,696.65,220,563,220Z" transform="translate(-321 -220)"/><path d="M781,242a336,336,0,0,1,107.64,17.33c32.89,11.09,62.42,27,87.77,47.18s45.16,43.66,59,69.79a179,179,0,0,1,0,170.4c-13.85,26.13-33.71,49.61-59,69.79s-54.88,36.09-87.77,47.18a343,343,0,0,1-215.28,0c-32.89-11.09-62.42-27-87.77-47.18s-45.16-43.66-59-69.79a179,179,0,0,1,0-170.4c13.85-26.13,33.71-49.61,59-69.79s54.88-36.09,87.77-47.18A336,336,0,0,1,781,242m0-3c-154.09,0-279,99.62-279,222.5S626.91,684,781,684s279-99.62,279-222.5S935.09,239,781,239Z" transform="translate(-321 -220)"/><text class="cls-2" transform="translate(500.7 85.35)">AI</text><path d="M929,342a125,125,0,0,1,87.69,35.3,118.11,118.11,0,0,1,0,170.4,126.57,126.57,0,0,1-175.38,0,118.11,118.11,0,0,1,0-170.4A125,125,0,0,1,929,342m0-1c-69,0-125,54.4-125,121.5S860,584,929,584s125-54.4,125-121.5S998,341,929,341Z" transform="translate(-321 -220)"/><path class="cls-3" d="M660.5,364c68.65,0,124.5,26.24,124.5,58.5S729.15,481,660.5,481,536,454.76,536,422.5,591.85,364,660.5,364m0-1C591.19,363,535,389.64,535,422.5S591.19,482,660.5,482,786,455.36,786,422.5,729.81,363,660.5,363Z" transform="translate(-321 -220)"/><text class="cls-4" transform="translate(563.7 243.35)">Symbolic AI</text><path class="cls-3" d="M576.5,430c27.29,0,49.5,18.84,49.5,42s-22.21,42-49.5,42S527,495.16,527,472s22.21-42,49.5-42m0-1c-27.89,0-50.5,19.25-50.5,43s22.61,43,50.5,43S627,495.75,627,472s-22.61-43-50.5-43Z" transform="translate(-321 -220)"/><path class="cls-3" d="M659,481c59.55,0,108,32.3,108,72s-48.45,72-108,72-108-32.3-108-72,48.45-72,108-72m0-1c-60.2,0-109,32.68-109,73s48.8,73,109,73,109-32.68,109-73-48.8-73-109-73Z" transform="translate(-321 -220)"/><path class="cls-3" d="M653.5,417c31.15,0,56.5,19.74,56.5,44s-25.35,44-56.5,44S597,485.26,597,461s25.35-44,56.5-44m0-1c-31.76,0-57.5,20.15-57.5,45s25.74,45,57.5,45S711,485.85,711,461s-25.74-45-57.5-45Z" transform="translate(-321 -220)"/><path class="cls-5" d="M454.7,317c25.75,0,46.7,23.33,46.7,52s-20.95,52-46.7,52S408,397.67,408,369s20.95-52,46.7-52m0-1c-26.34,0-47.7,23.73-47.7,53s21.36,53,47.7,53,47.7-23.73,47.7-53S481,316,454.7,316Z" transform="translate(-321 -220)"/><path class="cls-5" d="M377.7,383c25.75,0,46.7,23.33,46.7,52s-20.95,52-46.7,52S331,463.67,331,435s20.95-52,46.7-52m0-1c-26.34,0-47.7,23.73-47.7,53s21.36,53,47.7,53,47.7-23.73,47.7-53S404,382,377.7,382Z" transform="translate(-321 -220)"/><path class="cls-5" d="M449.5,464c32.81,0,59.5,23.33,59.5,52s-26.69,52-59.5,52S390,544.67,390,516s26.69-52,59.5-52m0-1c-33.41,0-60.5,23.73-60.5,53s27.09,53,60.5,53S510,545.27,510,516s-27.09-53-60.5-53Z" transform="translate(-321 -220)"/><path class="cls-5" d="M531.5,610c38.32,0,69.5,18.17,69.5,40.5S569.82,691,531.5,691,462,672.83,462,650.5,493.18,610,531.5,610m0-1c-38.94,0-70.5,18.58-70.5,41.5S492.56,692,531.5,692,602,673.42,602,650.5,570.44,609,531.5,609Z" transform="translate(-321 -220)"/><text class="cls-6" transform="translate(287.83 327.09)">Unsupe<tspan class="cls-7" x="65.63" y="0">r</tspan><tspan x="74.48" y="0">vised </tspan><tspan x="0" y="25.2">Lea</tspan><tspan class="cls-8" x="31.07" y="25.2">r</tspan><tspan x="40.23" y="25.2">ning</tspan></text><text class="cls-6" transform="translate(305.81 166.17) rotate(-0.1)">Supe<tspan class="cls-7" x="41.13" y="0">r</tspan><tspan x="49.99" y="0">vised </tspan><tspan x="0" y="25.2">Lea</tspan><tspan class="cls-8" x="31.07" y="25.2">r</tspan><tspan x="40.23" y="25.2">ning</tspan></text><text class="cls-9" transform="translate(310.52 225.96)">Neu<tspan class="cls-10" x="30.38" y="0">r</tspan><tspan x="37.72" y="0">al</tspan><tspan x="0" y="21.6">Networks</tspan></text><text class="cls-6" transform="translate(213.81 262.17) rotate(-0.1)">PGM</text><text class="cls-6" transform="translate(260.87 126.74)">Machine Lea<tspan class="cls-8" x="110.26" y="0">r</tspan><tspan x="119.42" y="0">ning</tspan></text><text class="cls-11" transform="translate(104.3 79.52)">D<tspan class="cls-12" x="36.49" y="0">a</tspan><tspan x="56.3" y="0">ta Science</tspan></text><text class="cls-13" transform="translate(93.7 138)">D<tspan class="cls-12" x="15.97" y="0">a</tspan><tspan x="24.63" y="0">ta </tspan><tspan x="0" y="25.2">Munging</tspan></text><text class="cls-13" transform="translate(17.7 201.57)">D<tspan class="cls-12" x="15.97" y="0">a</tspan><tspan x="24.63" y="0">ta</tspan><tspan x="0" y="25.2">Ana</tspan><tspan class="cls-12" x="34.78" y="25.2">l</tspan><tspan x="40.16" y="25.2">ytics</tspan></text><text class="cls-13" transform="translate(160.48 436.04)">Visualiz<tspan class="cls-12" x="68.68" y="0">a</tspan><tspan x="77.35" y="0">tion</tspan></text><path class="cls-5" d="M435.15,569a38,38,0,1,1-37.85,38,38,38,0,0,1,37.85-38m0-1A39,39,0,1,0,474,607a38.92,38.92,0,0,0-38.85-39Z" transform="translate(-321 -220)"/><text class="cls-13" transform="translate(89.65 389.85)">St<tspan class="cls-12" x="18.16" y="0">a</tspan><tspan x="26.82" y="0">ts</tspan></text><text class="cls-13" transform="translate(78.09 281.78)">D<tspan class="cls-12" x="15.97" y="0">a</tspan><tspan x="24.63" y="0">ta </tspan><tspan x="0" y="25.2">Engineering</tspan></text></svg>