<?xml version="1.0" encoding="utf-8" standalone="no"?>
<!DOCTYPE svg PUBLIC "-//W3C//DTD SVG 1.1//EN"
  "http://www.w3.org/Graphics/SVG/1.1/DTD/svg11.dtd">
<!-- Created with matplotlib (http://matplotlib.org/) -->
<svg height="216pt" version="1.1" viewBox="0 0 288 216" width="288pt" xmlns="http://www.w3.org/2000/svg" xmlns:xlink="http://www.w3.org/1999/xlink">
 <defs>
  <style type="text/css">
*{stroke-linecap:butt;stroke-linejoin:round;}
  </style>
 </defs>
 <g id="figure_1">
  <g id="patch_1">
   <path d="M 0 216 
L 288 216 
L 288 0 
L 0 0 
z
" style="fill:#ffffff;"/>
  </g>
  <g id="axes_1">
   <g id="patch_2">
    <path d="M 36 189 
L 259.2 189 
L 259.2 25.92 
L 36 25.92 
z
" style="fill:#ffffff;"/>
   </g>
   <g id="matplotlib.axis_1">
    <g id="xtick_1">
     <g id="line2d_1">
      <defs>
       <path d="M 0 0 
L 0 3.5 
" id="mf0a3814970" style="stroke:#000000;stroke-width:0.8;"/>
      </defs>
      <g>
       <use style="stroke:#000000;stroke-width:0.8;" x="36" xlink:href="#mf0a3814970" y="189"/>
      </g>
     </g>
     <g id="text_1">
      <!-- −5.0 -->
      <defs>
       <path d="M 10.59375 35.5 
L 73.1875 35.5 
L 73.1875 27.203125 
L 10.59375 27.203125 
z
" id="DejaVuSans-2212"/>
       <path d="M 10.796875 72.90625 
L 49.515625 72.90625 
L 49.515625 64.59375 
L 19.828125 64.59375 
L 19.828125 46.734375 
Q 21.96875 47.46875 24.109375 47.828125 
Q 26.265625 48.1875 28.421875 48.1875 
Q 40.625 48.1875 47.75 41.5 
Q 54.890625 34.8125 54.890625 23.390625 
Q 54.890625 11.625 47.5625 5.09375 
Q 40.234375 -1.421875 26.90625 -1.421875 
Q 22.3125 -1.421875 17.546875 -0.640625 
Q 12.796875 0.140625 7.71875 1.703125 
L 7.71875 11.625 
Q 12.109375 9.234375 16.796875 8.0625 
Q 21.484375 6.890625 26.703125 6.890625 
Q 35.15625 6.890625 40.078125 11.328125 
Q 45.015625 15.765625 45.015625 23.390625 
Q 45.015625 31 40.078125 35.4375 
Q 35.15625 39.890625 26.703125 39.890625 
Q 22.75 39.890625 18.8125 39.015625 
Q 14.890625 38.140625 10.796875 36.28125 
z
" id="DejaVuSans-35"/>
       <path d="M 10.6875 12.40625 
L 21 12.40625 
L 21 0 
L 10.6875 0 
z
" id="DejaVuSans-2e"/>
       <path d="M 31.78125 66.40625 
Q 24.171875 66.40625 20.328125 58.90625 
Q 16.5 51.421875 16.5 36.375 
Q 16.5 21.390625 20.328125 13.890625 
Q 24.171875 6.390625 31.78125 6.390625 
Q 39.453125 6.390625 43.28125 13.890625 
Q 47.125 21.390625 47.125 36.375 
Q 47.125 51.421875 43.28125 58.90625 
Q 39.453125 66.40625 31.78125 66.40625 
z
M 31.78125 74.21875 
Q 44.046875 74.21875 50.515625 64.515625 
Q 56.984375 54.828125 56.984375 36.375 
Q 56.984375 17.96875 50.515625 8.265625 
Q 44.046875 -1.421875 31.78125 -1.421875 
Q 19.53125 -1.421875 13.0625 8.265625 
Q 6.59375 17.96875 6.59375 36.375 
Q 6.59375 54.828125 13.0625 64.515625 
Q 19.53125 74.21875 31.78125 74.21875 
z
" id="DejaVuSans-30"/>
      </defs>
      <g transform="translate(23.858594 203.598437)scale(0.1 -0.1)">
       <use xlink:href="#DejaVuSans-2212"/>
       <use x="83.789062" xlink:href="#DejaVuSans-35"/>
       <use x="147.412109" xlink:href="#DejaVuSans-2e"/>
       <use x="179.199219" xlink:href="#DejaVuSans-30"/>
      </g>
     </g>
    </g>
    <g id="xtick_2">
     <g id="line2d_2">
      <g>
       <use style="stroke:#000000;stroke-width:0.8;" x="73.2" xlink:href="#mf0a3814970" y="189"/>
      </g>
     </g>
     <g id="text_2">
      <!-- −2.5 -->
      <defs>
       <path d="M 19.1875 8.296875 
L 53.609375 8.296875 
L 53.609375 0 
L 7.328125 0 
L 7.328125 8.296875 
Q 12.9375 14.109375 22.625 23.890625 
Q 32.328125 33.6875 34.8125 36.53125 
Q 39.546875 41.84375 41.421875 45.53125 
Q 43.3125 49.21875 43.3125 52.78125 
Q 43.3125 58.59375 39.234375 62.25 
Q 35.15625 65.921875 28.609375 65.921875 
Q 23.96875 65.921875 18.8125 64.3125 
Q 13.671875 62.703125 7.8125 59.421875 
L 7.8125 69.390625 
Q 13.765625 71.78125 18.9375 73 
Q 24.125 74.21875 28.421875 74.21875 
Q 39.75 74.21875 46.484375 68.546875 
Q 53.21875 62.890625 53.21875 53.421875 
Q 53.21875 48.921875 51.53125 44.890625 
Q 49.859375 40.875 45.40625 35.40625 
Q 44.1875 33.984375 37.640625 27.21875 
Q 31.109375 20.453125 19.1875 8.296875 
z
" id="DejaVuSans-32"/>
      </defs>
      <g transform="translate(61.058594 203.598437)scale(0.1 -0.1)">
       <use xlink:href="#DejaVuSans-2212"/>
       <use x="83.789062" xlink:href="#DejaVuSans-32"/>
       <use x="147.412109" xlink:href="#DejaVuSans-2e"/>
       <use x="179.199219" xlink:href="#DejaVuSans-35"/>
      </g>
     </g>
    </g>
    <g id="xtick_3">
     <g id="line2d_3">
      <g>
       <use style="stroke:#000000;stroke-width:0.8;" x="110.4" xlink:href="#mf0a3814970" y="189"/>
      </g>
     </g>
     <g id="text_3">
      <!-- 0.0 -->
      <g transform="translate(102.448437 203.598437)scale(0.1 -0.1)">
       <use xlink:href="#DejaVuSans-30"/>
       <use x="63.623047" xlink:href="#DejaVuSans-2e"/>
       <use x="95.410156" xlink:href="#DejaVuSans-30"/>
      </g>
     </g>
    </g>
    <g id="xtick_4">
     <g id="line2d_4">
      <g>
       <use style="stroke:#000000;stroke-width:0.8;" x="147.6" xlink:href="#mf0a3814970" y="189"/>
      </g>
     </g>
     <g id="text_4">
      <!-- 2.5 -->
      <g transform="translate(139.648438 203.598437)scale(0.1 -0.1)">
       <use xlink:href="#DejaVuSans-32"/>
       <use x="63.623047" xlink:href="#DejaVuSans-2e"/>
       <use x="95.410156" xlink:href="#DejaVuSans-35"/>
      </g>
     </g>
    </g>
    <g id="xtick_5">
     <g id="line2d_5">
      <g>
       <use style="stroke:#000000;stroke-width:0.8;" x="184.8" xlink:href="#mf0a3814970" y="189"/>
      </g>
     </g>
     <g id="text_5">
      <!-- 5.0 -->
      <g transform="translate(176.848437 203.598437)scale(0.1 -0.1)">
       <use xlink:href="#DejaVuSans-35"/>
       <use x="63.623047" xlink:href="#DejaVuSans-2e"/>
       <use x="95.410156" xlink:href="#DejaVuSans-30"/>
      </g>
     </g>
    </g>
    <g id="xtick_6">
     <g id="line2d_6">
      <g>
       <use style="stroke:#000000;stroke-width:0.8;" x="222" xlink:href="#mf0a3814970" y="189"/>
      </g>
     </g>
     <g id="text_6">
      <!-- 7.5 -->
      <defs>
       <path d="M 8.203125 72.90625 
L 55.078125 72.90625 
L 55.078125 68.703125 
L 28.609375 0 
L 18.3125 0 
L 43.21875 64.59375 
L 8.203125 64.59375 
z
" id="DejaVuSans-37"/>
      </defs>
      <g transform="translate(214.048438 203.598437)scale(0.1 -0.1)">
       <use xlink:href="#DejaVuSans-37"/>
       <use x="63.623047" xlink:href="#DejaVuSans-2e"/>
       <use x="95.410156" xlink:href="#DejaVuSans-35"/>
      </g>
     </g>
    </g>
    <g id="xtick_7">
     <g id="line2d_7">
      <g>
       <use style="stroke:#000000;stroke-width:0.8;" x="259.2" xlink:href="#mf0a3814970" y="189"/>
      </g>
     </g>
     <g id="text_7">
      <!-- 10.0 -->
      <defs>
       <path d="M 12.40625 8.296875 
L 28.515625 8.296875 
L 28.515625 63.921875 
L 10.984375 60.40625 
L 10.984375 69.390625 
L 28.421875 72.90625 
L 38.28125 72.90625 
L 38.28125 8.296875 
L 54.390625 8.296875 
L 54.390625 0 
L 12.40625 0 
z
" id="DejaVuSans-31"/>
      </defs>
      <g transform="translate(248.067187 203.598437)scale(0.1 -0.1)">
       <use xlink:href="#DejaVuSans-31"/>
       <use x="63.623047" xlink:href="#DejaVuSans-30"/>
       <use x="127.246094" xlink:href="#DejaVuSans-2e"/>
       <use x="159.033203" xlink:href="#DejaVuSans-30"/>
      </g>
     </g>
    </g>
    <g id="text_8">
     <!-- X -->
     <defs>
      <path d="M 6.296875 72.90625 
L 16.890625 72.90625 
L 35.015625 45.796875 
L 53.21875 72.90625 
L 63.8125 72.90625 
L 40.375 37.890625 
L 65.375 0 
L 54.78125 0 
L 34.28125 31 
L 13.625 0 
L 2.984375 0 
L 29 38.921875 
z
" id="DejaVuSans-58"/>
     </defs>
     <g transform="translate(144.175 217.276563)scale(0.1 -0.1)">
      <use xlink:href="#DejaVuSans-58"/>
     </g>
    </g>
   </g>
   <g id="matplotlib.axis_2">
    <g id="ytick_1">
     <g id="line2d_8">
      <defs>
       <path d="M 0 0 
L -3.5 0 
" id="m958bb346b8" style="stroke:#000000;stroke-width:0.8;"/>
      </defs>
      <g>
       <use style="stroke:#000000;stroke-width:0.8;" x="36" xlink:href="#m958bb346b8" y="175.41"/>
      </g>
     </g>
     <g id="text_9">
      <!-- 0.0 -->
      <g transform="translate(13.096875 179.209219)scale(0.1 -0.1)">
       <use xlink:href="#DejaVuSans-30"/>
       <use x="63.623047" xlink:href="#DejaVuSans-2e"/>
       <use x="95.410156" xlink:href="#DejaVuSans-30"/>
      </g>
     </g>
    </g>
    <g id="ytick_2">
     <g id="line2d_9">
      <g>
       <use style="stroke:#000000;stroke-width:0.8;" x="36" xlink:href="#m958bb346b8" y="148.23"/>
      </g>
     </g>
     <g id="text_10">
      <!-- 0.2 -->
      <g transform="translate(13.096875 152.029219)scale(0.1 -0.1)">
       <use xlink:href="#DejaVuSans-30"/>
       <use x="63.623047" xlink:href="#DejaVuSans-2e"/>
       <use x="95.410156" xlink:href="#DejaVuSans-32"/>
      </g>
     </g>
    </g>
    <g id="ytick_3">
     <g id="line2d_10">
      <g>
       <use style="stroke:#000000;stroke-width:0.8;" x="36" xlink:href="#m958bb346b8" y="121.05"/>
      </g>
     </g>
     <g id="text_11">
      <!-- 0.4 -->
      <defs>
       <path d="M 37.796875 64.3125 
L 12.890625 25.390625 
L 37.796875 25.390625 
z
M 35.203125 72.90625 
L 47.609375 72.90625 
L 47.609375 25.390625 
L 58.015625 25.390625 
L 58.015625 17.1875 
L 47.609375 17.1875 
L 47.609375 0 
L 37.796875 0 
L 37.796875 17.1875 
L 4.890625 17.1875 
L 4.890625 26.703125 
z
" id="DejaVuSans-34"/>
      </defs>
      <g transform="translate(13.096875 124.849219)scale(0.1 -0.1)">
       <use xlink:href="#DejaVuSans-30"/>
       <use x="63.623047" xlink:href="#DejaVuSans-2e"/>
       <use x="95.410156" xlink:href="#DejaVuSans-34"/>
      </g>
     </g>
    </g>
    <g id="ytick_4">
     <g id="line2d_11">
      <g>
       <use style="stroke:#000000;stroke-width:0.8;" x="36" xlink:href="#m958bb346b8" y="93.87"/>
      </g>
     </g>
     <g id="text_12">
      <!-- 0.6 -->
      <defs>
       <path d="M 33.015625 40.375 
Q 26.375 40.375 22.484375 35.828125 
Q 18.609375 31.296875 18.609375 23.390625 
Q 18.609375 15.53125 22.484375 10.953125 
Q 26.375 6.390625 33.015625 6.390625 
Q 39.65625 6.390625 43.53125 10.953125 
Q 47.40625 15.53125 47.40625 23.390625 
Q 47.40625 31.296875 43.53125 35.828125 
Q 39.65625 40.375 33.015625 40.375 
z
M 52.59375 71.296875 
L 52.59375 62.3125 
Q 48.875 64.0625 45.09375 64.984375 
Q 41.3125 65.921875 37.59375 65.921875 
Q 27.828125 65.921875 22.671875 59.328125 
Q 17.53125 52.734375 16.796875 39.40625 
Q 19.671875 43.65625 24.015625 45.921875 
Q 28.375 48.1875 33.59375 48.1875 
Q 44.578125 48.1875 50.953125 41.515625 
Q 57.328125 34.859375 57.328125 23.390625 
Q 57.328125 12.15625 50.6875 5.359375 
Q 44.046875 -1.421875 33.015625 -1.421875 
Q 20.359375 -1.421875 13.671875 8.265625 
Q 6.984375 17.96875 6.984375 36.375 
Q 6.984375 53.65625 15.1875 63.9375 
Q 23.390625 74.21875 37.203125 74.21875 
Q 40.921875 74.21875 44.703125 73.484375 
Q 48.484375 72.75 52.59375 71.296875 
z
" id="DejaVuSans-36"/>
      </defs>
      <g transform="translate(13.096875 97.669219)scale(0.1 -0.1)">
       <use xlink:href="#DejaVuSans-30"/>
       <use x="63.623047" xlink:href="#DejaVuSans-2e"/>
       <use x="95.410156" xlink:href="#DejaVuSans-36"/>
      </g>
     </g>
    </g>
    <g id="ytick_5">
     <g id="line2d_12">
      <g>
       <use style="stroke:#000000;stroke-width:0.8;" x="36" xlink:href="#m958bb346b8" y="66.69"/>
      </g>
     </g>
     <g id="text_13">
      <!-- 0.8 -->
      <defs>
       <path d="M 31.78125 34.625 
Q 24.75 34.625 20.71875 30.859375 
Q 16.703125 27.09375 16.703125 20.515625 
Q 16.703125 13.921875 20.71875 10.15625 
Q 24.75 6.390625 31.78125 6.390625 
Q 38.8125 6.390625 42.859375 10.171875 
Q 46.921875 13.96875 46.921875 20.515625 
Q 46.921875 27.09375 42.890625 30.859375 
Q 38.875 34.625 31.78125 34.625 
z
M 21.921875 38.8125 
Q 15.578125 40.375 12.03125 44.71875 
Q 8.5 49.078125 8.5 55.328125 
Q 8.5 64.0625 14.71875 69.140625 
Q 20.953125 74.21875 31.78125 74.21875 
Q 42.671875 74.21875 48.875 69.140625 
Q 55.078125 64.0625 55.078125 55.328125 
Q 55.078125 49.078125 51.53125 44.71875 
Q 48 40.375 41.703125 38.8125 
Q 48.828125 37.15625 52.796875 32.3125 
Q 56.78125 27.484375 56.78125 20.515625 
Q 56.78125 9.90625 50.3125 4.234375 
Q 43.84375 -1.421875 31.78125 -1.421875 
Q 19.734375 -1.421875 13.25 4.234375 
Q 6.78125 9.90625 6.78125 20.515625 
Q 6.78125 27.484375 10.78125 32.3125 
Q 14.796875 37.15625 21.921875 38.8125 
z
M 18.3125 54.390625 
Q 18.3125 48.734375 21.84375 45.5625 
Q 25.390625 42.390625 31.78125 42.390625 
Q 38.140625 42.390625 41.71875 45.5625 
Q 45.3125 48.734375 45.3125 54.390625 
Q 45.3125 60.0625 41.71875 63.234375 
Q 38.140625 66.40625 31.78125 66.40625 
Q 25.390625 66.40625 21.84375 63.234375 
Q 18.3125 60.0625 18.3125 54.390625 
z
" id="DejaVuSans-38"/>
      </defs>
      <g transform="translate(13.096875 70.489219)scale(0.1 -0.1)">
       <use xlink:href="#DejaVuSans-30"/>
       <use x="63.623047" xlink:href="#DejaVuSans-2e"/>
       <use x="95.410156" xlink:href="#DejaVuSans-38"/>
      </g>
     </g>
    </g>
    <g id="ytick_6">
     <g id="line2d_13">
      <g>
       <use style="stroke:#000000;stroke-width:0.8;" x="36" xlink:href="#m958bb346b8" y="39.51"/>
      </g>
     </g>
     <g id="text_14">
      <!-- 1.0 -->
      <g transform="translate(13.096875 43.309219)scale(0.1 -0.1)">
       <use xlink:href="#DejaVuSans-31"/>
       <use x="63.623047" xlink:href="#DejaVuSans-2e"/>
       <use x="95.410156" xlink:href="#DejaVuSans-30"/>
      </g>
     </g>
    </g>
    <g id="text_15">
     <!-- y -->
     <defs>
      <path d="M 32.171875 -5.078125 
Q 28.375 -14.84375 24.75 -17.8125 
Q 21.140625 -20.796875 15.09375 -20.796875 
L 7.90625 -20.796875 
L 7.90625 -13.28125 
L 13.1875 -13.28125 
Q 16.890625 -13.28125 18.9375 -11.515625 
Q 21 -9.765625 23.484375 -3.21875 
L 25.09375 0.875 
L 2.984375 54.6875 
L 12.5 54.6875 
L 29.59375 11.921875 
L 46.6875 54.6875 
L 56.203125 54.6875 
z
" id="DejaVuSans-79"/>
     </defs>
     <g transform="translate(7.017187 110.419375)rotate(-90)scale(0.1 -0.1)">
      <use xlink:href="#DejaVuSans-79"/>
     </g>
    </g>
   </g>
   <g id="line2d_14">
    <path clip-path="url(#p904c229149)" d="M 36 107.46 
L 259.2 107.46 
" style="fill:none;stroke:#808080;stroke-linecap:square;stroke-width:1.5;"/>
   </g>
   <g id="patch_3">
    <path d="M 36 189 
L 36 25.92 
" style="fill:none;stroke:#000000;stroke-linecap:square;stroke-linejoin:miter;stroke-width:0.8;"/>
   </g>
   <g id="patch_4">
    <path d="M 259.2 189 
L 259.2 25.92 
" style="fill:none;stroke:#000000;stroke-linecap:square;stroke-linejoin:miter;stroke-width:0.8;"/>
   </g>
   <g id="patch_5">
    <path d="M 36 189 
L 259.2 189 
" style="fill:none;stroke:#000000;stroke-linecap:square;stroke-linejoin:miter;stroke-width:0.8;"/>
   </g>
   <g id="patch_6">
    <path d="M 36 25.92 
L 259.2 25.92 
" style="fill:none;stroke:#000000;stroke-linecap:square;stroke-linejoin:miter;stroke-width:0.8;"/>
   </g>
   <g id="PathCollection_1">
    <defs>
     <path d="M 0 3 
C 0.795609 3 1.55874 2.683901 2.12132 2.12132 
C 2.683901 1.55874 3 0.795609 3 0 
C 3 -0.795609 2.683901 -1.55874 2.12132 -2.12132 
C 1.55874 -2.683901 0.795609 -3 0 -3 
C -0.795609 -3 -1.55874 -2.683901 -2.12132 -2.12132 
C -2.683901 -1.55874 -3 -0.795609 -3 0 
C -3 0.795609 -2.683901 1.55874 -2.12132 2.12132 
C -1.55874 2.683901 -0.795609 3 0 3 
z
" id="m7c011362a5" style="stroke:#000000;"/>
    </defs>
    <g clip-path="url(#p904c229149)">
     <use style="stroke:#000000;" x="223.80278" xlink:href="#m7c011362a5" y="39.51"/>
     <use style="stroke:#000000;" x="128.200961" xlink:href="#m7c011362a5" y="39.51"/>
     <use style="stroke:#000000;" x="162.98304" xlink:href="#m7c011362a5" y="39.51"/>
     <use style="stroke:#000000;" x="248.10535" xlink:href="#m7c011362a5" y="39.51"/>
     <use style="stroke:#000000;" x="216.320229" xlink:href="#m7c011362a5" y="39.51"/>
     <use style="stroke:#000000;" x="104.53443" xlink:href="#m7c011362a5" y="175.41"/>
     <use style="stroke:#000000;" x="165.102867" xlink:href="#m7c011362a5" y="39.51"/>
     <use style="stroke:#000000;" x="104.811166" xlink:href="#m7c011362a5" y="175.41"/>
     <use style="stroke:#000000;" x="117.448117" xlink:href="#m7c011362a5" y="175.41"/>
     <use style="stroke:#000000;" x="141.447841" xlink:href="#m7c011362a5" y="39.51"/>
     <use style="stroke:#000000;" x="127.310257" xlink:href="#m7c011362a5" y="39.51"/>
     <use style="stroke:#000000;" x="201.002942" xlink:href="#m7c011362a5" y="39.51"/>
     <use style="stroke:#000000;" x="151.852454" xlink:href="#m7c011362a5" y="39.51"/>
     <use style="stroke:#000000;" x="126.168627" xlink:href="#m7c011362a5" y="39.51"/>
     <use style="stroke:#000000;" x="135.622373" xlink:href="#m7c011362a5" y="39.51"/>
     <use style="stroke:#000000;" x="133.842461" xlink:href="#m7c011362a5" y="39.51"/>
     <use style="stroke:#000000;" x="203.556119" xlink:href="#m7c011362a5" y="39.51"/>
     <use style="stroke:#000000;" x="106.65528" xlink:href="#m7c011362a5" y="175.41"/>
     <use style="stroke:#000000;" x="131.77504" xlink:href="#m7c011362a5" y="39.51"/>
     <use style="stroke:#000000;" x="101.807786" xlink:href="#m7c011362a5" y="175.41"/>
     <use style="stroke:#000000;" x="74.091875" xlink:href="#m7c011362a5" y="175.41"/>
     <use style="stroke:#000000;" x="144.395654" xlink:href="#m7c011362a5" y="39.51"/>
     <use style="stroke:#000000;" x="163.182578" xlink:href="#m7c011362a5" y="39.51"/>
     <use style="stroke:#000000;" x="105.277571" xlink:href="#m7c011362a5" y="175.41"/>
     <use style="stroke:#000000;" x="242.395244" xlink:href="#m7c011362a5" y="39.51"/>
     <use style="stroke:#000000;" x="88.09107" xlink:href="#m7c011362a5" y="175.41"/>
     <use style="stroke:#000000;" x="111.181021" xlink:href="#m7c011362a5" y="39.51"/>
     <use style="stroke:#000000;" x="115.869818" xlink:href="#m7c011362a5" y="175.41"/>
     <use style="stroke:#000000;" x="204.632143" xlink:href="#m7c011362a5" y="39.51"/>
     <use style="stroke:#000000;" x="199.675144" xlink:href="#m7c011362a5" y="39.51"/>
     <use style="stroke:#000000;" x="116.185565" xlink:href="#m7c011362a5" y="39.51"/>
     <use style="stroke:#000000;" x="135.315442" xlink:href="#m7c011362a5" y="39.51"/>
     <use style="stroke:#000000;" x="94.179527" xlink:href="#m7c011362a5" y="175.41"/>
     <use style="stroke:#000000;" x="81.06784" xlink:href="#m7c011362a5" y="175.41"/>
     <use style="stroke:#000000;" x="102.38465" xlink:href="#m7c011362a5" y="175.41"/>
     <use style="stroke:#000000;" x="122.725489" xlink:href="#m7c011362a5" y="39.51"/>
     <use style="stroke:#000000;" x="186.200803" xlink:href="#m7c011362a5" y="39.51"/>
     <use style="stroke:#000000;" x="181.035803" xlink:href="#m7c011362a5" y="39.51"/>
     <use style="stroke:#000000;" x="106.404351" xlink:href="#m7c011362a5" y="175.41"/>
     <use style="stroke:#000000;" x="101.022308" xlink:href="#m7c011362a5" y="175.41"/>
     <use style="stroke:#000000;" x="88.140558" xlink:href="#m7c011362a5" y="175.41"/>
     <use style="stroke:#000000;" x="91.231578" xlink:href="#m7c011362a5" y="175.41"/>
     <use style="stroke:#000000;" x="85.75473" xlink:href="#m7c011362a5" y="175.41"/>
     <use style="stroke:#000000;" x="229.344932" xlink:href="#m7c011362a5" y="39.51"/>
     <use style="stroke:#000000;" x="113.454734" xlink:href="#m7c011362a5" y="175.41"/>
     <use style="stroke:#000000;" x="108.097611" xlink:href="#m7c011362a5" y="175.41"/>
     <use style="stroke:#000000;" x="87.683567" xlink:href="#m7c011362a5" y="175.41"/>
     <use style="stroke:#000000;" x="161.662587" xlink:href="#m7c011362a5" y="39.51"/>
     <use style="stroke:#000000;" x="80.510989" xlink:href="#m7c011362a5" y="175.41"/>
     <use style="stroke:#000000;" x="105.173911" xlink:href="#m7c011362a5" y="175.41"/>
     <use style="stroke:#000000;" x="96.770827" xlink:href="#m7c011362a5" y="175.41"/>
     <use style="stroke:#000000;" x="141.076799" xlink:href="#m7c011362a5" y="39.51"/>
     <use style="stroke:#000000;" x="99.474634" xlink:href="#m7c011362a5" y="175.41"/>
     <use style="stroke:#000000;" x="89.142971" xlink:href="#m7c011362a5" y="175.41"/>
     <use style="stroke:#000000;" x="109.541156" xlink:href="#m7c011362a5" y="175.41"/>
     <use style="stroke:#000000;" x="132.932546" xlink:href="#m7c011362a5" y="39.51"/>
     <use style="stroke:#000000;" x="119.388408" xlink:href="#m7c011362a5" y="39.51"/>
     <use style="stroke:#000000;" x="123.582313" xlink:href="#m7c011362a5" y="39.51"/>
     <use style="stroke:#000000;" x="95.838987" xlink:href="#m7c011362a5" y="175.41"/>
     <use style="stroke:#000000;" x="103.047983" xlink:href="#m7c011362a5" y="175.41"/>
     <use style="stroke:#000000;" x="98.170572" xlink:href="#m7c011362a5" y="175.41"/>
     <use style="stroke:#000000;" x="113.66328" xlink:href="#m7c011362a5" y="175.41"/>
     <use style="stroke:#000000;" x="102.538598" xlink:href="#m7c011362a5" y="175.41"/>
     <use style="stroke:#000000;" x="85.103744" xlink:href="#m7c011362a5" y="175.41"/>
     <use style="stroke:#000000;" x="115.49006" xlink:href="#m7c011362a5" y="39.51"/>
     <use style="stroke:#000000;" x="108.190736" xlink:href="#m7c011362a5" y="175.41"/>
     <use style="stroke:#000000;" x="81.677687" xlink:href="#m7c011362a5" y="175.41"/>
     <use style="stroke:#000000;" x="131.048942" xlink:href="#m7c011362a5" y="39.51"/>
     <use style="stroke:#000000;" x="102.202765" xlink:href="#m7c011362a5" y="175.41"/>
     <use style="stroke:#000000;" x="114.906622" xlink:href="#m7c011362a5" y="39.51"/>
     <use style="stroke:#000000;" x="157.906184" xlink:href="#m7c011362a5" y="39.51"/>
     <use style="stroke:#000000;" x="119.499863" xlink:href="#m7c011362a5" y="39.51"/>
     <use style="stroke:#000000;" x="182.042021" xlink:href="#m7c011362a5" y="39.51"/>
     <use style="stroke:#000000;" x="89.119614" xlink:href="#m7c011362a5" y="175.41"/>
     <use style="stroke:#000000;" x="129.730514" xlink:href="#m7c011362a5" y="39.51"/>
     <use style="stroke:#000000;" x="103.252664" xlink:href="#m7c011362a5" y="175.41"/>
     <use style="stroke:#000000;" x="93.856118" xlink:href="#m7c011362a5" y="175.41"/>
     <use style="stroke:#000000;" x="98.708567" xlink:href="#m7c011362a5" y="175.41"/>
     <use style="stroke:#000000;" x="103.730601" xlink:href="#m7c011362a5" y="175.41"/>
     <use style="stroke:#000000;" x="113.820988" xlink:href="#m7c011362a5" y="39.51"/>
     <use style="stroke:#000000;" x="91.482342" xlink:href="#m7c011362a5" y="175.41"/>
     <use style="stroke:#000000;" x="157.87941" xlink:href="#m7c011362a5" y="39.51"/>
     <use style="stroke:#000000;" x="135.243116" xlink:href="#m7c011362a5" y="39.51"/>
     <use style="stroke:#000000;" x="77.615422" xlink:href="#m7c011362a5" y="175.41"/>
     <use style="stroke:#000000;" x="201.771804" xlink:href="#m7c011362a5" y="39.51"/>
     <use style="stroke:#000000;" x="216.091738" xlink:href="#m7c011362a5" y="39.51"/>
     <use style="stroke:#000000;" x="175.630993" xlink:href="#m7c011362a5" y="39.51"/>
     <use style="stroke:#000000;" x="107.955583" xlink:href="#m7c011362a5" y="175.41"/>
     <use style="stroke:#000000;" x="91.165792" xlink:href="#m7c011362a5" y="175.41"/>
     <use style="stroke:#000000;" x="180.048984" xlink:href="#m7c011362a5" y="39.51"/>
     <use style="stroke:#000000;" x="98.629414" xlink:href="#m7c011362a5" y="175.41"/>
     <use style="stroke:#000000;" x="184.352046" xlink:href="#m7c011362a5" y="39.51"/>
     <use style="stroke:#000000;" x="122.621168" xlink:href="#m7c011362a5" y="39.51"/>
     <use style="stroke:#000000;" x="163.315186" xlink:href="#m7c011362a5" y="39.51"/>
     <use style="stroke:#000000;" x="133.946835" xlink:href="#m7c011362a5" y="39.51"/>
     <use style="stroke:#000000;" x="151.689452" xlink:href="#m7c011362a5" y="39.51"/>
     <use style="stroke:#000000;" x="114.470234" xlink:href="#m7c011362a5" y="39.51"/>
     <use style="stroke:#000000;" x="220.371134" xlink:href="#m7c011362a5" y="39.51"/>
     <use style="stroke:#000000;" x="127.610493" xlink:href="#m7c011362a5" y="39.51"/>
     <use style="stroke:#000000;" x="140.292668" xlink:href="#m7c011362a5" y="39.51"/>
    </g>
   </g>
  </g>
 </g>
 <defs>
  <clipPath id="p904c229149">
   <rect height="163.08" width="223.2" x="36" y="25.92"/>
  </clipPath>
 </defs>
</svg>
